<?xml version="1.0" standalone="no"?><!DOCTYPE svg PUBLIC "-//W3C//DTD SVG 1.1//EN" "http://www.w3.org/Graphics/SVG/1.1/DTD/svg11.dtd"><svg t="1713333957066" class="icon" viewBox="0 0 1024 1024" version="1.1" xmlns="http://www.w3.org/2000/svg" p-id="1030" xmlns:xlink="http://www.w3.org/1999/xlink" width="200" height="200"><path d="M906.590316 85.746526s-136.326737 53.194105-214.150737 28.402527A550.750316 550.750316 0 0 1 502.864842 16.815158a550.750316 550.750316 0 0 1-189.574737 97.333895c-77.824 23.578947-214.150737-28.402526-214.150737-28.402527a3238.453895 3238.453895 0 0 0 9.943579 512c28.725895 219.405474 393.781895 386.479158 393.781895 386.479158s365.702737-166.265263 393.781895-385.724631a3238.346105 3238.346105 0 0 0 9.943579-512.673685zM497.017263 644.958316a29.642105 29.642105 0 0 1-43.304421 0l-46.214737-47.157895-86.016-88.926316a32.175158 32.175158 0 0 1 0-44.139789l24.576-24.791579a29.642105 29.642105 0 0 1 43.304421 0l86.016 88.279579 195.988211-201.269895a29.642105 29.642105 0 0 1 43.304421 0l24.576 25.384421a32.175158 32.175158 0 0 1 0 44.13979z" p-id="1031" fill="#ffffff"></path></svg>